<?xml version="1.0" standalone="no"?>
<!DOCTYPE svg PUBLIC "-//W3C//DTD SVG 20010904//EN"
 "http://www.w3.org/TR/2001/REC-SVG-20010904/DTD/svg10.dtd">
<svg version="1.0" xmlns="http://www.w3.org/2000/svg"
 width="673.000000pt" height="673.000000pt" viewBox="0 0 673.000000 673.000000"
 preserveAspectRatio="xMidYMid meet">
<metadata>
Created by potrace 1.14, written by Peter Selinger 2001-2017
</metadata>
<g transform="translate(0.000000,673.000000) scale(0.100000,-0.100000)"
fill="#000000" stroke="none">
<path d="M3686 6213 c-1 -1 -31 -5 -67 -8 -66 -5 -138 -13 -199 -20 -19 -3
-53 -7 -75 -10 -78 -10 -101 -13 -150 -25 -27 -6 -57 -13 -65 -15 -81 -18
-120 -30 -215 -64 -133 -47 -151 -54 -221 -86 -136 -62 -204 -96 -209 -105 -3
-6 -15 -10 -26 -10 -10 0 -19 -4 -19 -10 0 -5 -4 -10 -10 -10 -12 0 -194 -111
-260 -159 -25 -17 -74 -51 -110 -75 -36 -23 -80 -59 -97 -80 -18 -20 -33 -34
-33 -31 0 3 -15 -11 -32 -32 -44 -51 -88 -100 -118 -133 -14 -15 -40 -45 -58
-68 -41 -49 -63 -76 -105 -122 -18 -19 -50 -57 -72 -85 -41 -51 -51 -63 -72
-89 -7 -8 -13 -18 -13 -22 0 -4 -6 -15 -14 -23 -42 -47 -193 -381 -179 -395 4
-3 2 -6 -3 -6 -5 0 -11 -8 -12 -17 -3 -27 -8 -45 -21 -77 -6 -16 -9 -31 -6
-34 2 -3 0 -11 -6 -19 -6 -7 -8 -13 -4 -13 5 0 -10 -13 -33 -30 -46 -33 -60
-54 -66 -102 -6 -44 -16 -106 -23 -143 -7 -41 -10 -62 -17 -121 -4 -28 -9 -61
-11 -75 -7 -33 -20 -147 -30 -249 -3 -30 -7 -74 -10 -97 -3 -24 -7 -62 -10
-85 -3 -24 -7 -74 -10 -113 -2 -38 -5 -70 -5 -70 -3 0 -15 -173 -26 -390 -4
-66 -7 -175 -8 -242 -1 -68 -3 -123 -6 -123 -3 0 -5 -71 -5 -158 0 -100 -4
-161 -11 -169 -25 -26 -2 -286 33 -383 4 -8 8 -23 10 -33 1 -10 10 -31 18 -48
9 -16 13 -29 11 -29 -3 0 2 -17 11 -38 8 -20 15 -37 14 -37 -3 0 8 -34 21 -65
5 -14 20 -56 33 -95 24 -73 48 -140 70 -190 7 -16 25 -61 40 -100 57 -144 213
-465 226 -465 4 0 9 -10 13 -22 7 -28 72 -102 106 -119 14 -7 52 -13 85 -14
33 0 65 -4 72 -8 6 -4 14 -3 18 3 4 6 11 8 16 5 5 -4 9 -2 9 3 0 5 7 9 15 9 8
0 15 -5 15 -11 0 -6 4 -5 9 2 4 7 19 14 32 14 13 1 30 6 38 12 12 9 13 8 6 -4
-7 -12 -6 -13 6 -3 8 6 25 13 39 15 14 1 28 8 32 13 5 6 8 5 8 -2 0 -7 5 -13
11 -13 5 0 7 5 3 12 -5 8 0 9 14 6 12 -4 22 -3 22 2 0 7 77 25 94 21 5 -1 13
4 17 11 4 7 11 9 15 5 10 -10 -2 -20 -28 -22 -12 -1 -23 -7 -24 -14 -1 -6 0
-7 3 -1 2 5 9 8 14 5 5 -3 18 -1 31 6 18 10 24 8 35 -7 19 -26 16 -8 -3 22
-16 23 -15 24 1 17 12 -4 16 -3 12 4 -4 7 0 10 10 8 10 -1 24 2 31 8 6 5 12 6
12 3 0 -4 10 -2 23 4 20 10 20 10 -3 -9 -13 -10 -29 -17 -34 -14 -5 3 -6 1 -2
-5 4 -7 9 -22 11 -33 3 -12 7 -24 11 -28 4 -3 4 2 0 13 -5 15 -2 17 13 13 13
-3 18 0 15 8 -3 6 2 17 10 24 8 7 12 20 9 29 -5 14 -4 15 8 4 11 -10 11 -16 0
-33 -8 -14 -9 -25 -3 -31 6 -6 12 -5 17 3 5 8 4 10 -3 5 -7 -4 -12 -3 -12 3 0
17 22 24 31 10 8 -12 12 -11 22 3 13 16 15 16 31 0 16 -16 17 -16 10 1 -3 9
-9 17 -13 17 -4 0 -8 7 -8 15 0 8 4 15 8 15 5 0 6 6 3 14 -7 18 12 30 22 15 5
-8 3 -9 -6 -4 -8 5 -11 3 -8 -6 3 -8 11 -13 17 -11 22 5 50 -18 45 -36 -5 -14
-4 -15 5 -2 6 11 24 15 55 15 27 -1 42 3 39 9 -4 5 1 7 10 3 14 -5 15 -3 4 13
-6 11 -16 18 -22 16 -5 -2 -18 3 -27 11 -15 13 -18 12 -29 -9 -11 -20 -10 -21
2 -11 9 7 20 8 29 3 8 -5 18 -6 22 -4 4 3 8 1 8 -4 0 -6 -7 -13 -16 -16 -20
-8 -24 -8 -23 2 3 18 -2 24 -14 14 -21 -18 -50 -8 -52 18 -2 20 0 21 10 6 13
-16 31 -23 21 -7 -3 5 1 12 10 15 9 3 12 11 8 18 -5 10 -4 10 6 1 7 -6 18 -10
24 -9 6 2 8 1 3 -1 -13 -8 3 -22 18 -17 8 4 12 10 9 16 -3 5 3 4 15 -4 22 -14
30 -34 8 -22 -9 6 -9 4 1 -7 6 -7 12 -22 12 -34 1 -15 5 -11 15 14 18 39 19
52 4 31 -9 -13 -10 -12 -5 3 3 9 1 17 -4 17 -5 0 -8 9 -7 19 1 12 6 17 17 13
22 -8 30 -24 24 -46 -4 -12 -2 -16 5 -12 6 4 11 3 11 -3 0 -5 14 -8 30 -6 17
2 30 -1 30 -6 0 -5 5 -9 11 -9 8 0 9 4 0 13 -19 24 1 27 21 4 l19 -22 -13 25
c-7 14 -11 30 -9 35 1 6 -8 0 -21 -13 -14 -12 -28 -19 -31 -15 -11 11 43 41
64 36 10 -3 19 -10 19 -15 0 -5 -4 -6 -10 -3 -6 4 -7 -1 -3 -11 4 -11 8 -13
11 -6 2 7 8 10 13 7 5 -4 6 2 3 12 -4 14 -2 13 14 -4 22 -25 42 -32 22 -8 -15
18 -7 19 21 5 15 -8 21 -7 25 5 3 8 10 12 15 9 5 -3 6 2 3 10 -4 10 0 13 13
11 10 -2 20 -4 23 -4 3 -1 -2 -6 -10 -12 -13 -9 -13 -10 0 -6 8 2 14 10 13 16
-4 18 38 6 54 -15 14 -19 14 -19 11 0 -2 10 3 21 11 24 9 3 11 0 6 -8 -5 -8
-4 -11 3 -6 6 4 9 13 6 20 -5 14 37 16 68 2 9 -4 25 -3 36 3 15 8 23 7 31 -3
6 -7 8 -16 4 -20 -4 -4 0 -4 10 -1 15 6 15 9 -4 24 -11 9 -21 25 -23 36 -1 11
-13 25 -25 31 -19 10 -20 12 -6 18 9 3 13 10 10 16 -3 5 -1 10 4 10 6 0 11 -5
11 -12 0 -6 7 -4 18 5 22 20 51 22 58 4 2 -7 14 -13 25 -14 16 -2 18 1 10 11
-14 16 10 29 34 20 11 -5 13 -2 9 10 -3 9 -11 13 -18 9 -6 -4 -5 1 3 10 7 9
12 17 10 18 -2 0 -12 2 -22 4 -25 5 -36 16 -11 12 30 -5 64 -26 63 -40 0 -9
-2 -9 -6 1 -2 6 -9 12 -14 12 -14 0 0 -24 22 -38 19 -12 20 -11 14 10 -7 23
-7 23 9 3 8 -11 16 -15 16 -8 0 7 -10 22 -22 33 -20 18 -20 20 -4 14 14 -5 17
-4 12 4 -4 7 -2 12 4 12 7 0 10 -6 7 -14 -3 -8 0 -22 7 -31 11 -16 13 -16 27
1 12 16 12 17 -3 11 -10 -3 -18 -2 -18 3 0 6 9 10 21 10 11 0 17 5 14 10 -4 6
-10 8 -15 5 -4 -3 -13 2 -20 10 -9 10 -9 15 -1 15 6 0 11 -4 11 -10 0 -5 3 -9
8 -9 24 4 33 -3 27 -21 -5 -15 -3 -18 8 -14 19 7 16 33 -5 48 -13 10 -14 15
-3 29 6 9 16 13 20 9 5 -4 5 1 2 11 -4 9 -2 17 3 17 17 0 11 -28 -7 -39 -17
-9 -17 -11 -1 -27 16 -16 18 -16 43 0 31 20 27 33 -5 16 -12 -6 -24 -9 -27 -6
-8 8 47 27 58 21 5 -4 16 -2 26 3 14 9 13 13 -11 36 -14 15 -24 31 -21 36 3 5
-4 8 -15 7 -22 -1 -27 -13 -7 -20 9 -4 9 -6 -1 -6 -7 -1 -11 -5 -7 -11 3 -5
12 -7 19 -4 7 3 19 -2 26 -11 8 -10 9 -15 1 -15 -6 0 -11 5 -11 10 0 6 -5 10
-11 10 -5 0 -8 -4 -5 -9 3 -5 -1 -11 -9 -14 -9 -4 -12 -1 -9 7 11 29 -59 46
-75 19 -6 -10 -10 -13 -10 -8 0 6 6 19 14 29 19 25 19 37 0 29 -9 -3 -13 -8
-11 -11 8 -7 -14 -32 -28 -32 -6 0 -4 5 4 10 8 5 15 20 15 32 1 13 4 28 7 33
4 6 3 17 -1 24 -6 10 -10 9 -14 -4 -4 -9 -3 -14 2 -11 5 4 4 -5 -2 -19 -7 -14
-16 -25 -22 -25 -5 0 -3 -5 5 -11 11 -8 9 -9 -10 -3 -21 6 -23 5 -12 -8 10
-13 10 -17 -2 -21 -10 -4 -13 -1 -10 8 4 10 -3 13 -28 10 -18 -2 -25 -1 -15 1
9 3 15 10 12 15 -11 16 -45 -10 -39 -29 4 -10 3 -13 -3 -6 -4 6 -19 10 -33 9
-40 -4 -53 8 -27 24 20 13 21 13 8 -2 -7 -10 -9 -17 -3 -17 13 0 33 25 27 33
-3 4 -2 5 2 2 3 -3 13 1 21 7 18 16 42 19 39 6 -1 -6 4 -13 12 -16 8 -2 11 0
7 6 -9 14 4 44 18 39 6 -2 22 4 35 14 13 10 27 17 31 14 4 -3 13 2 20 10 7 8
16 12 21 9 5 -3 9 0 9 6 0 7 5 6 14 -2 20 -19 9 -30 -17 -17 -12 7 -19 8 -15
4 4 -5 3 -14 -4 -22 -14 -18 -1 -31 15 -13 10 10 9 11 -2 5 -9 -5 -12 -4 -7 3
10 16 29 15 23 -1 -3 -8 1 -14 8 -14 7 0 11 7 8 16 -3 10 -1 12 4 6 4 -5 15
-11 23 -13 11 -2 10 1 -3 12 -17 13 -16 14 6 12 17 -1 23 -6 19 -15 -4 -10 -1
-13 12 -8 9 4 15 3 11 -2 -3 -5 3 -8 12 -6 10 1 17 9 15 16 -2 9 4 7 17 -5 11
-10 18 -26 16 -37 -2 -11 0 -17 6 -14 5 4 9 15 9 26 0 11 5 17 10 14 7 -4 7
-12 0 -25 -12 -23 -13 -33 -1 -25 5 3 16 -1 24 -9 8 -8 17 -12 21 -9 3 3 -3
12 -14 20 -11 8 -20 19 -20 25 0 7 7 3 16 -8 14 -18 15 -18 4 4 -11 22 -10 23
10 12 18 -10 21 -10 14 2 -6 10 -5 11 8 1 8 -7 18 -10 21 -6 4 3 7 0 7 -7 0
-9 5 -7 16 6 14 18 15 18 4 -5 -10 -19 -10 -22 2 -15 9 6 9 3 -2 -11 -8 -10
-10 -16 -4 -12 7 4 10 -5 8 -26 -1 -18 -3 -34 -4 -37 -1 -3 -2 -9 -1 -13 1 -5
-4 -5 -10 -1 -8 5 -9 3 -4 -6 5 -8 4 -11 -3 -6 -6 4 -8 14 -5 22 5 14 3 14
-16 3 -11 -8 -21 -17 -21 -22 0 -4 4 -6 9 -3 4 3 16 0 25 -7 17 -12 17 -14 0
-28 -16 -12 -17 -12 -11 3 3 10 1 20 -5 24 -7 5 -8 2 -3 -6 5 -8 4 -11 -3 -6
-6 3 -15 -2 -21 -11 -8 -14 -10 -15 -11 -3 0 13 -1 13 -10 0 -8 -12 -10 -12
-10 -1 0 8 -3 11 -6 8 -4 -4 -2 -13 4 -20 9 -10 8 -14 -3 -14 -8 0 -11 5 -8
11 4 6 0 5 -9 -1 -8 -7 -18 -10 -22 -6 -4 4 -4 -1 0 -12 7 -19 6 -19 -8 -1
-12 15 -19 17 -34 8 -14 -8 -15 -12 -4 -12 13 0 13 -1 0 -10 -8 -5 -19 -10
-25 -10 -5 0 -4 4 4 9 9 6 10 11 2 15 -6 4 -11 2 -11 -3 0 -6 -3 -10 -7 -10
-20 3 -29 -3 -30 -20 -1 -14 5 -18 24 -18 17 0 21 2 12 8 -7 4 -17 5 -21 3 -4
-3 -5 2 -2 10 5 13 9 13 32 -2 14 -9 23 -11 19 -4 -8 12 4 17 16 6 9 -10 -4
-34 -16 -27 -6 3 -7 1 -3 -5 7 -11 37 -5 33 7 -1 3 8 19 21 35 12 16 22 23 22
14 0 -8 -5 -19 -11 -25 -8 -8 -5 -14 11 -23 12 -7 20 -7 16 -2 -3 6 0 13 6 16
7 3 2 3 -12 0 -22 -4 -23 -3 -9 8 9 7 14 19 12 26 -3 7 1 10 11 6 10 -4 16 -1
16 7 0 7 3 9 7 6 3 -4 12 -2 20 5 12 9 13 6 9 -16 -3 -15 -10 -33 -15 -40 -8
-9 -7 -13 4 -13 8 0 12 3 10 7 -14 23 41 47 57 25 5 -6 8 -2 8 7 0 12 -7 17
-21 15 -12 -1 -23 3 -25 8 -3 7 19 10 58 9 47 -1 57 1 39 7 -13 5 -22 11 -20
12 2 1 13 9 23 17 18 13 19 13 14 -1 -5 -12 -1 -15 18 -11 13 2 24 8 24 13 0
5 -8 5 -17 2 -16 -6 -16 -5 -4 10 11 13 11 17 1 17 -17 0 -4 13 16 16 8 1 14
-3 13 -9 -3 -25 1 -38 11 -32 6 3 10 1 10 -6 0 -8 7 -6 19 5 17 16 19 16 25 0
4 -9 9 -14 12 -11 3 3 2 12 -2 19 -5 7 -10 33 -11 57 -1 37 0 41 11 25 7 -9
11 -31 9 -48 -3 -27 -2 -28 10 -11 8 10 19 15 26 11 7 -5 21 0 31 9 19 17 19
16 15 -14 -2 -17 0 -29 5 -26 4 3 11 -1 13 -7 4 -9 6 -10 6 -1 1 6 -3 15 -9
18 -5 3 -10 11 -10 17 0 7 6 6 15 -2 9 -8 15 -8 15 -2 0 6 -6 13 -12 15 -10 4
-9 8 2 17 13 10 12 11 -3 6 -12 -4 -17 -2 -14 6 2 7 14 12 25 10 12 -2 22 1
22 7 0 6 -8 8 -17 5 -16 -5 -16 -4 -3 8 31 26 19 71 -20 80 -8 2 -19 8 -23 13
-5 6 -6 2 -3 -8 4 -12 2 -17 -6 -14 -7 2 -12 12 -10 23 1 10 -7 25 -18 32 -11
7 -20 8 -20 3 0 -5 7 -11 15 -15 8 -3 15 -11 15 -17 0 -8 -4 -8 -15 1 -10 9
-15 9 -15 1 0 -6 4 -11 8 -11 4 0 8 -9 8 -19 0 -13 -7 -19 -19 -18 -13 1 -17
7 -14 23 3 17 0 21 -12 17 -12 -3 -11 0 3 11 11 9 15 16 9 16 -7 0 -15 -4 -18
-10 -3 -5 -11 -10 -18 -10 -8 0 -8 3 1 12 7 7 12 15 12 19 0 4 -14 -6 -30 -23
-17 -17 -34 -28 -37 -25 -3 4 8 20 26 36 32 30 38 45 21 56 -6 4 -7 -1 -3 -11
4 -12 3 -15 -5 -10 -8 5 -10 1 -5 -10 5 -13 3 -15 -8 -9 -8 4 -11 5 -7 0 8 -9
-20 -34 -39 -35 -6 0 -15 9 -18 21 -5 15 -10 17 -20 9 -9 -8 -15 -8 -20 0 -3
5 -12 10 -18 10 -7 0 -4 -7 6 -15 11 -7 26 -11 35 -8 14 5 15 3 5 -7 -13 -15
-67 -24 -58 -10 3 4 2 15 -1 24 -5 13 -9 14 -21 5 -7 -7 -12 -18 -9 -26 3 -7
1 -13 -4 -13 -11 0 -13 33 -3 44 11 10 12 37 2 30 -5 -3 -7 -10 -4 -15 4 -5 0
-12 -9 -15 -9 -3 -12 -12 -9 -22 4 -12 -2 -10 -20 7 -15 14 -30 21 -34 18 -3
-4 -1 -7 6 -7 7 0 9 -5 5 -12 -5 -7 -11 -5 -21 7 -14 21 -18 8 -4 -14 8 -12
12 -12 24 -2 13 10 18 8 31 -11 21 -29 20 -33 -5 -35 -16 -2 -18 1 -9 12 15
18 -4 29 -29 15 -11 -5 -21 -10 -24 -10 -4 0 -7 22 -8 55 0 16 -2 17 -9 5 -9
-14 -15 -7 -11 14 1 5 -4 4 -12 -2 -8 -7 -17 -9 -20 -5 -4 3 -7 1 -7 -6 0 -8
7 -11 15 -7 17 6 21 -9 5 -19 -12 -7 -50 12 -50 26 0 6 4 8 9 5 5 -4 11 -3 13
1 1 5 18 16 36 25 26 14 38 15 54 7 11 -6 18 -7 15 -2 -10 16 35 53 83 68 3 1
25 11 50 23 25 12 51 22 58 22 6 0 12 5 12 10 0 6 6 10 12 10 17 0 85 33 321
154 59 30 107 52 107 48 0 -4 4 -2 8 3 4 6 33 23 65 40 31 16 57 33 57 38 0 4
3 6 8 4 4 -3 28 7 53 22 283 160 444 234 554 255 50 10 117 29 150 42 33 14
65 25 70 25 69 -8 125 -7 145 1 14 6 38 12 54 14 17 3 32 8 35 12 4 4 20 14
36 22 62 31 193 175 205 225 1 6 6 18 12 28 23 43 29 137 12 197 -12 42 -18
89 -14 100 6 17 11 53 14 115 3 39 7 90 10 115 3 25 8 65 11 90 5 42 8 61 20
128 3 15 8 45 11 67 4 21 13 57 20 78 8 22 11 43 8 48 -3 5 -1 9 4 9 5 0 8 14
7 30 -2 19 5 40 18 56 11 15 21 36 21 48 1 11 5 26 8 32 4 6 10 26 13 45 8 42
9 44 24 99 14 49 19 70 25 121 3 19 5 34 6 34 1 0 3 12 4 28 1 15 -1 27 -4 27
-3 0 -6 24 -6 53 -3 109 -8 157 -16 157 -5 0 -4 9 2 20 6 11 7 20 3 20 -4 0
-8 20 -8 45 0 25 3 45 6 45 3 0 5 10 4 23 -1 12 3 45 10 72 11 51 12 165 1
221 -3 17 -8 46 -11 65 -8 58 -65 276 -83 322 -7 16 -12 33 -12 38 0 5 -4 17
-8 27 -5 9 -22 44 -38 77 -42 89 -129 208 -273 375 -92 106 -126 137 -178 161
-36 16 -49 29 -65 66 l-21 47 22 18 c45 36 17 57 -174 135 -33 14 -64 29 -70
33 -13 11 -247 128 -260 130 -5 1 -27 11 -47 21 -21 11 -38 17 -38 14 0 -4
-15 2 -32 11 -56 29 -67 34 -77 34 -5 0 -22 5 -38 12 -15 6 -32 12 -38 14 -5
1 -30 9 -55 17 -25 8 -58 18 -75 23 -42 11 -45 11 -47 14 -2 1 -10 3 -18 5 -8
2 -49 13 -90 25 -41 11 -88 23 -105 26 -43 8 -48 10 -70 16 -11 4 -40 9 -65
12 -25 3 -55 8 -67 10 -14 3 -23 0 -23 -7 0 -9 -2 -9 -8 -1 -6 10 -157 16
-166 7z m-154 -5005 c16 16 33 15 19 -1 -6 -8 -7 -17 -3 -22 4 -4 -4 -4 -17 0
-20 6 -23 5 -17 -10 5 -14 4 -16 -7 -7 -8 7 -17 8 -21 4 -4 -4 -6 0 -4 8 2 8
-4 16 -12 16 -8 1 -21 2 -27 3 -20 2 -15 29 5 33 9 2 29 -5 45 -16 21 -15 30
-17 39 -8z m178 2 c0 -5 -4 -10 -10 -10 -5 0 -10 5 -10 10 0 6 5 10 10 10 6 0
10 -4 10 -10z m96 -24 c10 -8 16 -18 11 -22 -4 -4 -7 -1 -7 7 -1 8 -7 3 -16
-11 -13 -22 -14 -22 -9 -3 5 19 2 21 -30 19 -33 -3 -63 -16 -36 -16 7 0 10 -4
7 -9 -3 -4 2 -17 10 -27 9 -10 12 -13 8 -5 -5 10 -3 12 6 6 7 -4 16 -2 21 6 5
8 9 9 9 3 0 -7 -11 -19 -25 -28 -14 -9 -23 -22 -19 -28 4 -7 3 -8 -4 -4 -7 4
-10 -1 -7 -14 2 -11 -2 -20 -8 -20 -7 0 -6 -4 3 -10 10 -6 11 -10 3 -10 -7 0
-13 -4 -13 -8 0 -21 34 -6 51 22 21 34 56 48 38 15 -5 -11 -14 -17 -20 -14 -5
4 -9 1 -9 -4 0 -6 5 -11 10 -11 6 0 10 -5 10 -11 0 -5 -4 -8 -9 -4 -5 3 -12 1
-16 -5 -4 -6 -10 -8 -15 -5 -5 3 -11 -4 -15 -15 -3 -11 -11 -20 -16 -20 -14 0
-11 20 4 20 6 0 4 5 -6 11 -9 5 -22 7 -29 3 -7 -5 -8 -3 -2 7 5 8 9 17 10 22
1 4 3 8 4 10 1 1 3 35 4 75 1 62 0 71 -11 56 -15 -20 -40 -27 -49 -13 -3 5 0
8 8 7 7 -2 13 4 12 12 -1 13 9 16 48 15 27 -1 51 3 54 7 7 12 18 10 40 -6z
m94 -15 c0 -4 -7 -8 -15 -8 -8 0 -15 4 -15 9 0 5 -5 6 -11 2 -8 -4 -7 -9 2
-16 10 -6 7 -7 -8 -3 -22 6 -28 -2 -24 -28 1 -4 -5 -7 -12 -5 -17 4 -20 -3
-11 -25 5 -13 10 -15 20 -6 10 8 12 5 8 -16 -3 -17 -1 -26 6 -23 6 2 11 7 10
12 -1 5 4 13 12 17 10 7 10 9 -2 9 -9 1 -5 6 10 15 14 8 19 14 11 15 -10 0
-11 3 -2 13 6 8 7 18 3 22 -4 5 -1 5 5 1 28 -16 59 -15 89 3 55 33 83 -10 40
-58 -10 -11 -23 -18 -27 -15 -5 3 -6 -1 -3 -9 3 -8 -1 -19 -8 -23 -16 -11 -58
-13 -52 -2 8 12 -27 57 -40 52 -15 -6 -17 -34 -2 -34 6 0 1 -7 -10 -14 -26
-19 -65 -17 -61 2 5 31 -35 20 -55 -14 -11 -19 -21 -34 -22 -34 -3 0 1 54 4
58 1 1 3 5 4 10 0 4 16 21 33 38 18 17 29 35 25 39 -4 5 -1 5 6 1 7 -4 15 -1
18 8 3 9 12 16 20 16 8 0 14 5 14 10 0 7 6 7 20 0 11 -6 20 -14 20 -19z m-279
6 c-6 -8 -8 -16 -5 -20 3 -3 -1 -4 -10 -3 -22 3 -22 19 1 27 26 11 27 10 14
-4z m-51 -7 c0 -5 -4 -10 -10 -10 -5 0 -10 5 -10 10 0 6 5 10 10 10 6 0 10 -4
10 -10z m395 0 c3 -5 1 -10 -4 -10 -6 0 -11 5 -11 10 0 6 2 10 4 10 3 0 8 -4
11 -10z m-196 -22 c-10 -19 -36 -15 -36 6 0 8 10 13 23 12 18 -1 20 -4 13 -18z
m101 -14 c-6 -6 -6 -15 -2 -19 4 -5 1 -5 -5 -1 -7 4 -13 3 -13 -1 0 -11 -38
-14 -45 -3 -2 4 3 7 12 6 10 0 18 5 19 12 2 18 2 18 23 18 14 0 17 -4 11 -12z
m-720 -88 c0 -4 6 -4 13 2 7 6 24 8 37 5 21 -6 22 -7 5 -13 -24 -9 -32 -52 -7
-44 14 5 14 4 2 -4 -27 -20 -38 11 -17 46 5 6 4 12 -2 12 -5 0 -12 -4 -16 -10
-8 -13 -28 -4 -43 20 -12 19 -11 20 8 8 11 -7 20 -17 20 -22z m-44 -2 c-3 -8
1 -14 8 -14 8 0 16 -7 20 -15 5 -13 2 -13 -19 1 -15 10 -22 21 -18 32 5 14 3
15 -8 5 -7 -7 -17 -13 -23 -13 -5 0 -1 6 9 14 22 16 39 11 31 -10z m137 13 c3
-8 2 -20 -3 -26 -5 -9 -7 -4 -7 13 0 29 2 32 10 13z m27 3 c0 -5 -2 -10 -4
-10 -3 0 -8 5 -11 10 -3 6 -1 10 4 10 6 0 11 -4 11 -10z m50 -8 c0 -4 -10 -9
-22 -9 -18 -2 -20 0 -8 7 18 12 30 13 30 2z m17 -14 c-3 -8 -6 -5 -6 6 -1 11
2 17 5 13 3 -3 4 -12 1 -19z m37 -3 c-9 -14 -21 -25 -28 -25 -6 0 -4 5 4 10 8
5 11 10 7 10 -10 0 15 29 26 30 4 0 0 -11 -9 -25z m506 -16 c-12 -21 -12 -21
-34 -13 -9 3 -13 10 -10 16 3 5 12 4 22 -4 12 -10 14 -10 8 0 -9 15 2 35 15
27 5 -4 5 -14 -1 -26z m-770 -17 c3 -2 -6 -1 -20 3 -14 4 -32 14 -40 22 -11
10 -5 9 20 -3 19 -9 37 -19 40 -22z m180 21 c0 -3 -7 -2 -15 1 -11 4 -15 0
-13 -12 2 -9 12 -20 23 -24 17 -6 17 -7 -4 -5 -23 2 -37 29 -25 48 5 8 34 1
34 -8z m31 -8 c5 4 6 -2 2 -11 -4 -11 -8 -13 -11 -6 -2 7 -8 10 -13 7 -5 -4
-6 2 -2 11 4 11 8 13 11 6 2 -7 8 -10 13 -7z m-312 -29 c-3 -3 -11 5 -18 17
-13 21 -12 21 5 5 10 -10 16 -20 13 -22z m37 22 c4 -7 3 -8 -4 -4 -7 4 -12 2
-12 -5 0 -7 -3 -10 -6 -6 -6 5 3 27 11 27 2 0 7 -5 11 -12z m-70 -14 c18 -14
18 -14 -6 -3 -31 14 -36 19 -24 19 6 0 19 -7 30 -16z m89 -4 c-3 -5 -1 -10 4
-10 15 0 14 -17 -2 -23 -9 -3 -13 2 -11 16 3 27 3 27 10 27 3 0 2 -4 -1 -10z
m137 -32 c9 2 19 -1 22 -7 7 -11 -23 -45 -32 -36 -3 3 3 12 14 21 18 15 18 15
-3 11 -15 -3 -27 2 -38 19 -21 32 -19 45 3 14 9 -15 24 -24 34 -22z m-272 28
c0 -2 -8 -10 -17 -17 -16 -13 -17 -12 -4 4 13 16 21 21 21 13z m203 -17 c5 -3
2 -9 -5 -12 -9 -3 -14 3 -15 15 -1 11 1 16 5 12 4 -5 11 -12 15 -15z m571 6
c-4 -8 -14 -15 -23 -15 -14 1 -13 3 3 15 25 19 27 19 20 0z m-739 -3 c-3 -3 1
-12 8 -21 10 -14 10 -14 -5 -3 -9 8 -22 11 -27 7 -6 -3 -8 0 -5 8 2 7 11 14
19 14 8 0 13 -3 10 -5z m666 -15 c-10 -9 -11 -8 -5 6 3 10 9 15 12 12 3 -3 0
-11 -7 -18z m-461 -22 c14 -19 14 -19 -2 -6 -10 7 -18 18 -18 24 0 6 1 8 3 6
1 -2 9 -13 17 -24z m-263 -7 c-3 -8 -6 -5 -6 6 -1 11 2 17 5 13 3 -3 4 -12 1
-19z m117 8 c-3 -9 -12 -12 -22 -9 -15 6 -9 11 25 22 1 1 0 -5 -3 -13z m-174
-10 c0 -2 -8 -10 -17 -17 -16 -13 -17 -12 -4 4 13 16 21 21 21 13z m280 -6 c0
-5 -8 -10 -17 -10 -15 0 -16 2 -3 10 19 12 20 12 20 0z m-236 -8 c3 -5 -1 -9
-9 -9 -8 0 -12 4 -9 9 3 4 7 8 9 8 2 0 6 -4 9 -8z m196 4 c0 -3 -4 -8 -10 -11
-5 -3 -10 -1 -10 4 0 6 5 11 10 11 6 0 10 -2 10 -4z m450 0 c0 -11 -19 -15
-25 -6 -3 5 1 10 9 10 9 0 16 -2 16 -4z m-465 -35 c-6 -5 -25 10 -25 20 0 5 6
4 14 -3 8 -7 12 -15 11 -17z m-218 -3 c-3 -8 -6 -5 -6 6 -1 11 2 17 5 13 3 -3
4 -12 1 -19z m71 10 c-2 -6 -10 -13 -16 -14 -7 -1 -8 0 -2 3 5 2 8 9 4 14 -3
5 0 9 6 9 7 0 10 -5 8 -12z m62 -3 c-10 -12 -4 -25 12 -25 5 0 6 5 2 12 -4 6
-3 8 4 4 5 -3 13 0 15 6 4 9 6 10 6 1 1 -6 -8 -18 -19 -26 -11 -8 -17 -17 -12
-21 4 -4 -5 -2 -20 5 -16 7 -28 16 -28 21 0 5 -5 6 -12 2 -7 -5 -8 -3 -4 5 6
9 12 9 25 -3 21 -19 35 -21 24 -3 -13 20 -12 34 3 34 9 0 11 -4 4 -12z m87
-36 c13 -5 22 -13 19 -18 -4 -5 0 -12 6 -14 10 -4 9 -8 -2 -16 -20 -14 -26
-14 -44 4 -18 18 -30 20 -20 3 5 -9 2 -9 -9 1 -13 11 -17 11 -17 1 0 -8 -3
-10 -6 -7 -4 4 4 22 17 42 13 19 26 30 28 24 2 -6 14 -14 28 -20z m-259 1 c-7
-10 -14 -17 -17 -15 -4 4 18 35 25 35 2 0 -1 -9 -8 -20z m-88 5 c0 -7 -30 -13
-34 -7 -3 4 4 9 15 9 10 1 19 0 19 -2z m197 -10 c4 -4 2 -5 -4 -1 -7 4 -13 3
-13 -2 0 -17 13 -22 28 -9 13 10 14 9 7 -2 -6 -11 -4 -13 7 -9 8 4 21 2 29 -2
11 -7 10 -13 -6 -30 -13 -15 -21 -17 -26 -8 -4 7 -5 17 -3 23 3 5 -2 1 -10 -9
-9 -11 -16 -14 -16 -7 0 7 -5 9 -12 4 -7 -4 -19 -8 -26 -9 -10 -2 -11 1 -1 12
8 10 8 14 0 14 -6 0 -19 -16 -28 -34 -14 -29 -19 -33 -35 -25 -10 5 -22 7 -27
5 -5 -3 -11 1 -15 9 -3 8 -10 15 -16 15 -6 0 -8 -5 -3 -12 4 -7 -5 -5 -20 5
l-28 18 -34 -34 c-19 -19 -36 -34 -36 -33 -7 7 -4 46 2 46 5 0 9 -5 9 -11 0
-5 4 -8 10 -4 16 10 1 32 -22 31 -12 -1 -22 6 -24 17 -1 9 2 15 7 11 5 -3 6
-10 3 -16 -5 -7 0 -9 15 -5 14 3 24 0 28 -8 4 -12 8 -12 27 0 13 8 26 12 30 8
4 -5 17 -8 29 -9 12 -1 31 -4 42 -9 16 -5 15 -3 -5 14 -19 16 -20 20 -6 14 12
-4 17 -3 13 4 -3 5 0 10 8 11 8 1 22 3 30 4 8 1 15 5 15 10 0 4 5 8 12 8 6 0
3 -9 -7 -20 -21 -23 -14 -26 16 -7 17 10 23 9 26 -1 3 -6 9 -10 14 -7 5 4 2
17 -7 30 -14 21 -14 23 0 21 9 -1 19 -6 23 -11z m-142 -15 c-3 -5 -12 -10 -18
-10 -7 0 -6 4 3 10 19 12 23 12 15 0z m-105 -15 c5 3 11 1 14 -4 4 -5 -2 -8
-11 -7 -9 2 -18 8 -19 15 -1 6 0 7 3 1 2 -5 9 -8 13 -5z m-105 -5 c-3 -5 -12
-10 -18 -10 -7 0 -6 4 3 10 19 12 23 12 15 0z m175 0 c0 -5 -4 -10 -10 -10 -5
0 -10 5 -10 10 0 6 5 10 10 10 6 0 10 -4 10 -10z m-213 -36 c-3 -3 -12 -4 -19
-1 -8 3 -5 6 6 6 11 1 17 -2 13 -5z m-129 -49 c-3 -3 -9 2 -12 12 -6 14 -5 15
5 6 7 -7 10 -15 7 -18z m-62 -23 c-7 -38 -18 -53 -31 -42 -14 12 -28 53 -15
45 5 -3 11 1 14 7 3 7 3 3 1 -9 -3 -12 -2 -24 3 -27 5 -3 9 1 10 9 1 8 3 22 4
30 1 8 5 12 10 9 4 -3 6 -13 4 -22z m-91 -42 c-20 -22 -35 -26 -35 -10 0 6 10
15 23 20 32 13 32 12 12 -10z"/>
<path d="M3450 1209 c0 -5 5 -7 10 -4 6 3 10 8 10 11 0 2 -4 4 -10 4 -5 0 -10
-5 -10 -11z"/>
<path d="M3714 1111 c0 -23 4 -27 13 -19 11 8 11 14 1 27 -7 9 -13 17 -14 19
-1 2 -1 -10 0 -27z"/>
<path d="M3997 1164 c-3 -3 -3 -12 0 -20 4 -10 0 -12 -11 -8 -9 3 -16 1 -16
-5 0 -6 -5 -11 -11 -11 -5 0 -7 6 -3 13 5 8 2 8 -9 -2 -14 -11 -17 -11 -17 0
0 11 -2 11 -10 -1 -8 -12 -10 -12 -10 -1 0 8 -3 12 -6 9 -3 -4 1 -19 10 -35 8
-15 15 -22 16 -14 0 8 3 11 8 7 7 -7 8 -11 11 -37 0 -5 6 -7 11 -4 6 4 9 14 8
23 -2 11 4 17 15 17 22 0 37 23 29 43 -4 11 -2 13 9 7 12 -8 12 -6 0 8 -15 19
-15 19 -24 11z m6 -50 c-2 -7 -11 -10 -18 -8 -7 3 -16 0 -20 -5 -7 -12 -25 -5
-25 9 0 5 6 7 14 4 8 -3 16 -1 20 4 8 14 35 10 29 -4z"/>
<path d="M3774 1095 c-4 -8 -11 -12 -18 -8 -6 3 -8 3 -4 -2 4 -4 2 -15 -5 -24
-11 -14 -10 -14 6 -2 19 15 42 51 32 51 -3 0 -8 -7 -11 -15z"/>
<path d="M3029 838 c-8 -15 -8 -19 0 -13 7 4 18 1 26 -5 8 -7 15 -9 15 -4 0 5
5 2 10 -6 7 -12 9 -11 8 6 -1 11 -12 25 -25 31 -20 10 -25 8 -34 -9z m32 -5
c13 -16 12 -17 -3 -4 -10 7 -18 15 -18 17 0 8 8 3 21 -13z"/>
<path d="M2815 807 c-13 -10 -15 -16 -6 -21 6 -4 9 -11 7 -15 -3 -4 1 -8 8 -8
8 0 12 7 8 15 -4 11 -2 13 9 7 11 -7 12 -6 2 7 -7 8 -10 18 -6 21 11 12 -2 7
-22 -6z"/>
<path d="M2964 812 c3 -5 0 -13 -6 -15 -9 -4 -10 -6 -1 -6 17 -1 25 16 12 25
-7 4 -9 3 -5 -4z"/>
<path d="M4196 1352 c-3 -4 4 -9 15 -9 23 -2 25 3 4 10 -8 4 -16 3 -19 -1z"/>
<path d="M4335 1351 c-3 -5 -2 -12 3 -15 5 -3 9 1 9 9 0 17 -3 19 -12 6z"/>
<path d="M4434 1352 c4 -3 14 -7 22 -8 9 -1 13 0 10 4 -4 3 -14 7 -22 8 -9 1
-13 0 -10 -4z"/>
<path d="M4676 1352 c-3 -4 4 -9 15 -9 23 -2 25 3 4 10 -8 4 -16 3 -19 -1z"/>
<path d="M4747 1349 c7 -7 15 -10 18 -7 3 3 -2 9 -12 12 -14 6 -15 5 -6 -5z"/>
<path d="M3893 1325 c0 -8 4 -12 9 -9 5 3 6 10 3 15 -9 13 -12 11 -12 -6z"/>
<path d="M3930 1331 c0 -6 4 -13 10 -16 6 -3 7 1 4 9 -7 18 -14 21 -14 7z"/>
<path d="M4056 1323 c-6 -14 -5 -15 5 -6 7 7 10 15 7 18 -3 3 -9 -2 -12 -12z"/>
<path d="M4090 1331 c0 -6 4 -13 10 -16 6 -3 7 1 4 9 -7 18 -14 21 -14 7z"/>
<path d="M4243 1328 c-11 -19 -13 -39 -1 -32 5 3 7 9 4 12 -3 3 -1 11 5 19 6
7 9 13 6 13 -3 0 -9 -6 -14 -12z"/>
<path d="M4939 1338 c-5 -18 -6 -38 -1 -34 7 8 12 36 6 36 -2 0 -4 -1 -5 -2z"/>
<path d="M4974 1326 c1 -8 5 -18 8 -22 4 -3 5 1 4 10 -1 8 -5 18 -8 22 -4 3
-5 -1 -4 -10z"/>
<path d="M5070 1329 c0 -5 5 -7 10 -4 6 3 10 8 10 11 0 2 -4 4 -10 4 -5 0 -10
-5 -10 -11z"/>
<path d="M3655 1310 c-3 -5 -3 -10 2 -10 4 0 1 -5 -7 -10 -11 -7 -11 -10 -2
-10 8 0 10 -5 6 -12 -4 -7 -3 -9 2 -5 4 4 9 19 10 32 1 27 -1 30 -11 15z"/>
<path d="M4190 1305 c5 -7 6 -16 2 -21 -4 -5 -3 -6 2 -2 5 4 16 2 25 -4 12
-10 12 -7 -2 8 -9 11 -15 23 -12 26 3 2 -2 5 -10 5 -10 0 -12 -4 -5 -12z"/>
<path d="M4510 1310 c0 -5 5 -10 11 -10 5 0 7 5 4 10 -3 6 -8 10 -11 10 -2 0
-4 -4 -4 -10z"/>
<path d="M4547 1309 c7 -7 15 -10 18 -7 3 3 -2 9 -12 12 -14 6 -15 5 -6 -5z"/>
<path d="M4770 1310 c0 -5 5 -10 11 -10 5 0 7 5 4 10 -3 6 -8 10 -11 10 -2 0
-4 -4 -4 -10z"/>
<path d="M3779 1298 c15 -21 31 -23 31 -6 0 6 -3 8 -7 5 -3 -4 -13 -1 -22 6
-14 11 -14 10 -2 -5z"/>
<path d="M4155 1301 c-3 -5 -2 -12 3 -15 5 -3 9 1 9 9 0 17 -3 19 -12 6z"/>
<path d="M4374 1290 c0 -13 4 -16 10 -10 7 7 7 13 0 20 -6 6 -10 3 -10 -10z"/>
<path d="M3685 1290 c-3 -6 1 -7 9 -4 18 7 21 14 7 14 -6 0 -13 -4 -16 -10z"/>
<path d="M3890 1288 c0 -11 12 -10 30 2 12 7 10 9 -8 7 -12 0 -22 -5 -22 -9z"/>
<path d="M4038 1289 c-6 -4 4 -6 21 -5 17 0 31 4 31 8 0 8 -37 6 -52 -3z"/>
<path d="M4434 1293 c3 -4 0 -13 -6 -22 -10 -12 -7 -12 8 2 11 9 23 16 25 15
2 -2 3 -1 1 1 -1 3 -10 6 -18 7 -9 1 -13 0 -10 -3z"/>
<path d="M4839 1283 c-13 -16 -12 -17 4 -4 16 13 21 21 13 21 -2 0 -10 -8 -17
-17z"/>
<path d="M4719 1288 c-5 -18 -6 -38 -1 -34 7 8 12 36 6 36 -2 0 -4 -1 -5 -2z"/>
<path d="M3715 1270 c3 -6 1 -10 -6 -10 -7 0 -10 -3 -6 -6 3 -3 13 -2 22 4 16
8 16 9 1 15 -10 4 -15 3 -11 -3z"/>
<path d="M4147 1264 c2 -7 11 -10 19 -7 19 7 18 10 -5 16 -13 3 -18 1 -14 -9z"/>
<path d="M4500 1276 c0 -2 8 -10 18 -17 15 -13 16 -12 3 4 -13 16 -21 21 -21
13z"/>
<path d="M3780 1265 c0 -5 5 -17 10 -25 5 -8 10 -10 10 -5 0 6 -5 17 -10 25
-5 8 -10 11 -10 5z"/>
<path d="M4097 1264 c-3 -3 -3 -13 0 -21 5 -13 1 -13 -23 2 l-29 17 25 -20
c28 -23 39 -21 37 8 -1 22 -1 22 -10 14z"/>
<path d="M4300 1266 c0 -2 7 -7 16 -10 8 -3 12 -2 9 4 -6 10 -25 14 -25 6z"/>
<path d="M4340 1264 c0 -13 18 -39 24 -34 2 3 -2 14 -10 24 -8 11 -14 16 -14
10z"/>
<path d="M4446 1251 c-13 -14 -14 -21 -5 -27 8 -5 10 -3 4 6 -6 9 -4 12 6 8
10 -4 15 1 15 13 0 23 1 23 -20 0z"/>
<path d="M4621 1255 c9 -11 15 -28 14 -38 -2 -11 -1 -16 2 -13 4 3 13 0 22 -6
12 -10 12 -7 -2 8 -9 11 -15 23 -12 26 3 3 -5 13 -17 24 -23 19 -23 19 -7 -1z"/>
<path d="M3620 1250 c8 -5 22 -9 30 -9 10 0 8 3 -5 9 -27 12 -43 12 -25 0z"/>
<path d="M3750 1249 c0 -5 5 -7 10 -4 6 3 10 8 10 11 0 2 -4 4 -10 4 -5 0 -10
-5 -10 -11z"/>
<path d="M4004 1244 c-18 -14 -18 -15 4 -4 12 6 22 13 22 15 0 8 -5 6 -26 -11z"/>
<path d="M4230 1246 c7 -7 13 -7 20 0 6 6 3 10 -10 10 -13 0 -16 -4 -10 -10z"/>
<path d="M4836 1243 c-6 -14 -5 -15 5 -6 7 7 10 15 7 18 -3 3 -9 -2 -12 -12z"/>
<path d="M4595 1241 c-6 -11 13 -26 22 -17 4 3 1 6 -6 6 -7 0 -9 5 -6 10 3 6
4 10 1 10 -3 0 -7 -4 -11 -9z"/>
<path d="M3806 1224 c-5 -14 -4 -15 9 -4 17 14 19 20 6 20 -5 0 -12 -7 -15
-16z"/>
<path d="M4030 1230 c0 -5 5 -10 10 -10 6 0 10 5 10 10 0 6 -4 10 -10 10 -5 0
-10 -4 -10 -10z"/>
<path d="M4117 1227 c-3 -8 -2 -20 3 -26 5 -9 8 -4 8 13 0 29 -3 32 -11 13z"/>
<path d="M4180 1236 c0 -2 7 -6 15 -10 8 -3 15 -1 15 4 0 6 -7 10 -15 10 -8 0
-15 -2 -15 -4z"/>
<path d="M4256 1231 c-4 -5 -3 -16 0 -25 5 -12 2 -15 -10 -10 -9 3 -16 4 -16
1 0 -17 31 -13 41 5 9 16 8 19 -2 13 -9 -6 -11 -3 -6 8 7 18 2 23 -7 8z"/>
<path d="M4476 1223 c-6 -14 -5 -15 5 -6 7 7 10 15 7 18 -3 3 -9 -2 -12 -12z"/>
<path d="M4660 1236 c0 -2 8 -10 18 -17 15 -13 16 -12 3 4 -13 16 -21 21 -21
13z"/>
<path d="M4750 1226 c7 -7 13 -7 20 0 6 6 3 10 -10 10 -13 0 -16 -4 -10 -10z"/>
<path d="M4216 1215 c-9 -26 -7 -32 5 -12 6 10 9 21 6 23 -2 3 -7 -2 -11 -11z"/>
<path d="M4310 1221 c0 -5 5 -13 10 -16 6 -3 10 -2 10 4 0 5 -4 13 -10 16 -5
3 -10 2 -10 -4z"/>
<path d="M4000 1209 c37 -15 69 -49 63 -68 -2 -9 4 -4 13 12 10 15 22 27 26
27 5 0 8 5 8 11 0 8 -5 7 -16 -2 -13 -11 -15 -10 -12 6 1 10 -3 20 -11 23 -9
3 -12 0 -9 -9 21 -51 20 -53 -12 -21 -18 17 -42 32 -54 31 -19 0 -19 -1 4 -10z"/>
<path d="M4154 1208 c12 -7 21 -7 28 0 6 6 0 10 -18 10 -23 0 -24 -2 -10 -10z"/>
<path d="M4435 1200 c-4 -6 1 -7 11 -3 13 5 15 3 9 -7 -5 -9 -4 -11 4 -6 6 4
9 12 6 17 -8 12 -22 12 -30 -1z"/>
<path d="M4140 1195 c0 -5 5 -17 10 -25 9 -13 10 -13 10 0 0 13 1 13 11 0 7
-10 9 -11 7 -2 -2 8 -7 13 -12 12 -5 -1 -13 4 -17 12 -5 7 -9 9 -9 3z"/>
<path d="M4193 1176 c0 -31 14 -43 30 -26 9 10 8 12 -7 6 -13 -4 -17 -2 -13 7
3 8 2 20 -3 26 -5 9 -7 4 -7 -13z"/>
<path d="M4276 1185 c-3 -9 -6 -22 -5 -28 0 -7 5 -1 10 12 5 13 8 26 5 28 -2
2 -6 -3 -10 -12z"/>
<path d="M4335 1189 c-5 -8 -4 -10 3 -5 12 7 16 -5 13 -31 -1 -7 3 -13 8 -13
11 0 6 39 -8 53 -5 5 -12 4 -16 -4z"/>
<path d="M4374 1189 c-4 -7 -3 -9 4 -5 5 3 13 0 15 -6 4 -9 6 -10 6 -1 1 17
-16 25 -25 12z"/>
<path d="M4564 1189 c-3 -6 0 -17 8 -25 13 -13 15 -13 15 0 0 8 -5 12 -10 9
-6 -4 -8 0 -4 10 7 19 2 23 -9 6z"/>
<path d="M4710 1191 c0 -6 4 -13 10 -16 6 -3 7 1 4 9 -7 18 -14 21 -14 7z"/>
<path d="M4101 1156 c-21 -22 -21 -56 1 -56 5 0 7 -4 3 -10 -3 -5 -11 -7 -18
-4 -17 6 -51 -31 -44 -48 3 -8 6 -6 6 6 1 12 6 16 16 12 33 -13 49 -16 28 -5
-13 7 -23 16 -23 21 0 11 14 10 27 -3 13 -13 33 -4 33 17 0 8 5 14 10 14 6 0
10 5 10 11 0 8 -5 7 -16 -1 -12 -11 -18 -10 -31 3 -9 9 -13 20 -9 24 5 5 11 2
13 -4 3 -7 9 -13 15 -13 6 0 5 6 -2 15 -7 9 -10 19 -6 22 4 4 10 3 14 -2 4 -6
16 -17 26 -25 16 -12 18 -12 11 -1 -6 11 -4 13 9 8 11 -4 15 -3 11 4 -4 6 -13
8 -21 5 -7 -3 -20 4 -27 14 -13 19 -14 19 -36 -4z m19 -76 c0 -5 -5 -10 -11
-10 -5 0 -7 5 -4 10 3 6 8 10 11 10 2 0 4 -4 4 -10z"/>
<path d="M4232 1166 c7 -8 15 -12 17 -11 5 6 -10 25 -20 25 -5 0 -4 -6 3 -14z"/>
<path d="M4310 1170 c8 -5 20 -10 25 -10 6 0 3 5 -5 10 -8 5 -19 10 -25 10 -5
0 -3 -5 5 -10z"/>
<path d="M4410 1170 c0 -5 5 -10 10 -10 6 0 10 5 10 10 0 6 -4 10 -10 10 -5 0
-10 -4 -10 -10z"/>
<path d="M4466 1172 c-3 -5 1 -9 9 -9 8 0 15 4 15 9 0 4 -4 8 -9 8 -6 0 -12
-4 -15 -8z"/>
<path d="M4746 1168 c3 -5 10 -6 15 -3 13 9 11 12 -6 12 -8 0 -12 -4 -9 -9z"/>
<path d="M3435 1152 c-4 -4 -22 -7 -41 -7 -19 -1 -34 -5 -34 -10 0 -6 5 -11
10 -11 6 -1 13 -3 18 -4 4 -2 25 -3 47 -4 22 -1 40 -6 40 -12 0 -6 7 -18 17
-27 9 -9 18 -22 21 -29 2 -7 8 -10 12 -5 5 4 -2 18 -14 31 -15 16 -19 26 -11
31 6 4 9 13 7 19 -3 7 1 13 9 13 7 0 11 -4 8 -9 -3 -4 1 -17 8 -27 10 -14 18
-17 28 -10 12 7 12 9 -3 9 -13 0 -16 6 -13 25 5 25 -8 43 -18 26 -6 -9 -43 -7
-73 4 -6 2 -14 1 -18 -3z m20 -20 c-10 -11 -35 -10 -42 0 -3 6 -1 8 5 4 6 -3
13 -2 17 4 4 6 11 8 16 4 6 -3 8 -9 4 -12z m36 -5 c-1 -12 -15 -9 -19 4 -3 6
1 10 8 8 6 -3 11 -8 11 -12z"/>
<path d="M4300 1145 c12 -14 9 -15 -21 -10 -18 3 -30 3 -26 -1 10 -11 87 -12
87 -2 0 4 -7 8 -15 8 -8 0 -15 5 -15 10 0 6 -5 10 -11 10 -8 0 -7 -5 1 -15z"/>
<path d="M4518 1153 c7 -3 16 -2 19 1 4 3 -2 6 -13 5 -11 0 -14 -3 -6 -6z"/>
<path d="M3279 1145 c-1 0 -3 -12 -5 -27 -3 -27 -2 -27 21 -12 35 23 40 44 10
42 -14 -1 -26 -3 -26 -3z"/>
<path d="M4384 1136 c-10 -8 -16 -18 -11 -22 4 -4 7 -2 7 5 0 7 4 10 9 7 5 -3
11 1 15 9 7 19 5 19 -20 1z"/>
<path d="M4460 1141 c0 -6 4 -13 10 -16 6 -3 7 1 4 9 -7 18 -14 21 -14 7z"/>
<path d="M4494 1130 c0 -13 4 -16 10 -10 7 7 7 13 0 20 -6 6 -10 3 -10 -10z"/>
<path d="M4220 1130 c-9 -6 -10 -10 -3 -10 6 0 15 5 18 10 8 12 4 12 -15 0z"/>
<path d="M4579 1138 c-5 -18 -6 -38 -1 -34 7 8 12 36 6 36 -2 0 -4 -1 -5 -2z"/>
<path d="M3207 1112 c-10 -10 -17 -23 -17 -28 1 -5 9 1 19 13 10 12 22 19 26
15 5 -4 5 -1 1 6 -9 16 -10 15 -29 -6z"/>
<path d="M3626 1116 c3 -8 15 -19 27 -25 15 -8 16 -10 3 -6 -10 3 -24 1 -31
-5 -9 -8 -17 -6 -29 5 -9 9 -16 12 -16 7 0 -20 -40 -20 -51 -1 -5 11 -15 17
-20 13 -6 -4 -2 -15 11 -29 18 -20 20 -62 1 -51 -4 3 -13 1 -21 -4 -12 -8 -13
-13 -2 -30 16 -26 15 -33 -4 -26 -10 4 -13 2 -8 -7 5 -7 1 -7 -10 2 -12 10
-14 17 -6 25 5 5 10 15 10 21 0 5 -6 3 -13 -6 -7 -9 -22 -19 -34 -23 -13 -4
-22 -10 -22 -14 3 -20 -2 -32 -11 -27 -5 3 -10 1 -10 -5 0 -7 7 -10 15 -7 12
5 12 2 3 -19 -14 -31 -22 -23 -28 31 0 6 -10 -1 -20 -14 -11 -13 -20 -20 -20
-17 0 4 -8 2 -18 -3 -13 -7 -23 -6 -31 2 -9 9 -16 6 -31 -13 -19 -24 -19 -24
-13 -2 3 13 1 22 -6 22 -7 0 -11 -6 -10 -12 4 -30 -1 -40 -13 -31 -7 5 -20 9
-28 8 -8 -1 -21 -3 -28 -3 -7 -1 -10 -7 -7 -12 5 -8 12 -7 23 2 12 10 14 10 8
1 -4 -8 -2 -13 4 -13 6 0 8 -4 5 -10 -9 -14 -21 -12 -39 6 -9 8 -16 12 -16 8
0 -4 -10 1 -21 12 -16 14 -21 15 -17 4 2 -8 14 -19 26 -25 12 -5 22 -13 22
-18 0 -4 -4 -5 -10 -2 -6 3 -7 -1 -4 -9 7 -18 20 -21 29 -6 4 6 16 8 26 5 14
-5 20 -2 18 7 -6 43 11 49 19 5 2 -12 5 -27 6 -34 1 -7 5 -15 9 -19 7 -7 -1
45 -9 58 -3 4 0 8 5 8 6 0 11 -5 11 -10 0 -6 10 -4 23 4 29 19 69 5 61 -21 -5
-15 -4 -15 4 -3 8 10 7 19 -1 29 -10 12 -8 13 13 7 20 -6 22 -5 10 4 -12 10
-11 11 8 7 12 -3 20 -1 16 4 -3 5 -12 9 -20 9 -8 0 -12 5 -9 10 4 6 13 7 23 1
20 -10 45 -3 36 10 -3 5 0 9 6 9 6 0 9 4 5 9 -10 17 49 41 108 45 16 1 32 8
37 16 5 8 20 15 32 15 16 0 22 6 20 17 -3 18 34 44 58 40 8 -1 4 5 -10 13 -14
9 -17 14 -8 11 20 -6 34 9 18 19 -6 4 -8 10 -5 15 6 10 -7 20 -34 25 -13 2
-18 -1 -15 -9z m-21 -54 c-3 -3 -11 0 -18 7 -9 10 -8 11 6 5 10 -3 15 -9 12
-12z m42 0 c1 -10 -8 -24 -19 -31 -11 -7 -17 -8 -13 -2 3 6 1 11 -4 11 -6 0
-11 -2 -11 -4 0 -2 -3 -12 -7 -22 -4 -11 -3 -15 5 -10 6 3 13 2 16 -3 4 -5 -2
-8 -11 -7 -21 3 -54 -15 -47 -25 2 -4 -4 -6 -13 -5 -10 2 -17 6 -15 10 2 4 -5
14 -15 22 -10 7 -16 14 -13 15 5 1 50 7 78 11 6 1 12 4 12 8 0 14 -13 19 -30
10 -15 -8 -17 -6 -13 10 6 24 11 25 34 4 16 -14 19 -14 36 4 23 26 28 26 30 4z
m-192 -101 c3 -6 -5 -15 -17 -21 -21 -10 -22 -10 -5 3 14 11 15 16 5 20 -9 4
-9 6 -1 6 6 1 14 -3 18 -8z m-81 -57 c3 -8 2 -13 -2 -10 -4 2 -16 -2 -27 -10
-13 -10 -15 -14 -4 -14 10 -1 10 -3 -3 -11 -9 -5 -28 -8 -42 -5 -14 2 -26 0
-28 -6 -3 -8 -10 -8 -22 -1 -16 9 -14 11 13 23 17 7 28 17 24 23 -4 6 -1 7 8
1 20 -12 39 -14 39 -3 0 6 5 7 10 4 6 -3 13 1 16 9 8 20 10 20 18 0z"/>
<path d="M3570 1011 c0 -6 -9 -8 -19 -6 -14 3 -19 -2 -18 -15 1 -16 3 -17 24
-3 21 14 31 33 18 33 -3 0 -5 -4 -5 -9z"/>
<path d="M3310 870 c0 -5 5 -10 11 -10 5 0 7 5 4 10 -3 6 -8 10 -11 10 -2 0
-4 -4 -4 -10z"/>
<path d="M4060 1110 c0 -5 5 -10 11 -10 5 0 7 5 4 10 -3 6 -8 10 -11 10 -2 0
-4 -4 -4 -10z"/>
<path d="M4159 1093 c-16 -19 -18 -23 -4 -12 37 29 49 34 42 16 -3 -10 -2 -17
4 -17 13 0 8 32 -7 37 -5 2 -21 -9 -35 -24z"/>
<path d="M4235 1109 c-4 -6 -4 -13 -1 -16 3 -4 6 -1 6 5 0 7 5 12 11 12 5 0 7
-5 3 -12 -4 -7 -3 -8 5 -4 12 8 6 26 -9 26 -5 0 -12 -5 -15 -11z"/>
<path d="M4436 1105 c-3 -9 -10 -14 -15 -10 -5 3 -12 1 -15 -4 -8 -13 22 -7
36 7 6 6 9 14 6 17 -3 3 -8 -1 -12 -10z"/>
<path d="M3390 1100 c-8 -5 -13 -10 -10 -11 3 0 16 -2 29 -5 20 -4 22 -2 11
11 -7 8 -13 15 -14 15 0 0 -8 -5 -16 -10z"/>
<path d="M4276 1093 c-6 -14 -5 -15 5 -6 7 7 10 15 7 18 -3 3 -9 -2 -12 -12z"/>
<path d="M4357 1082 c-15 -16 -15 -19 -2 -19 8 0 13 3 10 5 -3 3 0 11 6 19 17
20 5 16 -14 -5z"/>
<path d="M4510 1096 c0 -2 7 -7 16 -10 8 -3 12 -2 9 4 -6 10 -25 14 -25 6z"/>
<path d="M4296 1081 c-4 -5 3 -7 14 -4 23 6 26 13 6 13 -8 0 -17 -4 -20 -9z"/>
<path d="M4215 1070 c-3 -6 1 -13 9 -16 9 -3 13 -11 9 -18 -3 -6 3 -3 15 8 12
10 19 23 16 27 -6 11 -15 12 -11 2 2 -8 -6 -13 -24 -13 -5 0 -7 5 -4 10 3 6 4
10 1 10 -3 0 -8 -5 -11 -10z"/>
<path d="M4450 1069 c0 -5 5 -7 10 -4 6 3 10 8 10 11 0 2 -4 4 -10 4 -5 0 -10
-5 -10 -11z"/>
<path d="M4130 1049 c0 -4 12 -6 26 -3 18 3 23 1 18 -7 -4 -8 -3 -9 5 -5 6 4
9 11 6 15 -6 11 -55 11 -55 0z"/>
<path d="M4200 1025 c-7 -9 -11 -17 -9 -20 3 -2 10 5 17 15 14 24 10 26 -8 5z"/>
<path d="M4107 1017 c-3 -8 0 -14 7 -14 7 0 13 6 13 14 0 7 -4 13 -8 13 -4 0
-9 -6 -12 -13z"/>
<path d="M3930 1015 c0 -8 29 -12 39 -5 9 5 4 8 -13 8 -14 0 -26 -2 -26 -3z"/>
<path d="M4050 1012 c0 -4 10 -9 22 -9 18 -2 20 0 8 7 -18 12 -30 13 -30 2z"/>
<path d="M4159 1003 c-13 -16 -12 -17 4 -4 9 7 17 15 17 17 0 8 -8 3 -21 -13z"/>
<path d="M4235 1010 c3 -5 8 -10 11 -10 2 0 4 5 4 10 0 6 -5 10 -11 10 -5 0
-7 -4 -4 -10z"/>
<path d="M3920 996 c0 -2 7 -7 16 -10 8 -3 12 -2 9 4 -6 10 -25 14 -25 6z"/>
<path d="M3974 992 c3 -5 0 -13 -6 -15 -9 -4 -10 -6 -1 -6 17 -1 25 16 12 25
-7 4 -9 3 -5 -4z"/>
<path d="M3476 982 c-3 -5 1 -9 9 -9 8 0 12 4 9 9 -3 4 -7 8 -9 8 -2 0 -6 -4
-9 -8z"/>
<path d="M4053 975 c0 -8 4 -12 9 -9 5 3 6 10 3 15 -9 13 -12 11 -12 -6z"/>
<path d="M3820 969 c-13 -9 -12 -10 3 -5 21 7 22 -2 1 -34 l-16 -25 20 22 c11
12 23 19 27 15 4 -4 2 3 -4 16 -14 26 -12 25 -31 11z"/>
<path d="M3865 970 c-3 -6 1 -7 9 -4 18 7 21 14 7 14 -6 0 -13 -4 -16 -10z"/>
<path d="M3915 970 c-3 -5 -1 -10 4 -10 6 0 11 5 11 10 0 6 -2 10 -4 10 -3 0
-8 -4 -11 -10z"/>
<path d="M3996 963 c-6 -14 -5 -15 5 -6 7 7 10 15 7 18 -3 3 -9 -2 -12 -12z"/>
<path d="M3876 952 c-3 -5 1 -9 9 -9 8 0 12 4 9 9 -3 4 -7 8 -9 8 -2 0 -6 -4
-9 -8z"/>
<path d="M3793 935 c0 -8 4 -12 9 -9 4 3 8 9 8 15 0 5 -4 9 -8 9 -5 0 -9 -7
-9 -15z"/>
<path d="M3725 930 c-3 -6 1 -7 9 -4 18 7 21 14 7 14 -6 0 -13 -4 -16 -10z"/>
<path d="M3620 921 c0 -7 -5 -9 -12 -5 -7 5 -8 3 -3 -5 5 -9 10 -10 18 -2 6 6
8 14 4 18 -4 3 -7 1 -7 -6z"/>
<path d="M3739 918 c-5 -18 -6 -38 -1 -34 7 8 12 36 6 36 -2 0 -4 -1 -5 -2z"/>
<path d="M3875 910 c3 -5 8 -10 11 -10 2 0 4 5 4 10 0 6 -5 10 -11 10 -5 0 -7
-4 -4 -10z"/>
<path d="M3131 886 c-8 -10 -9 -16 -1 -21 5 -3 10 -1 10 4 0 6 6 11 14 11 8 0
18 5 21 10 10 16 -31 12 -44 -4z"/>
<path d="M3673 875 c0 -8 4 -12 9 -9 5 3 6 10 3 15 -9 13 -12 11 -12 -6z"/>
<path d="M3416 855 c4 -8 8 -15 10 -15 2 0 4 7 4 15 0 8 -4 15 -10 15 -5 0 -7
-7 -4 -15z"/>
<path d="M3446 853 c-6 -14 -5 -15 5 -6 7 7 10 15 7 18 -3 3 -9 -2 -12 -12z"/>
<path d="M3550 848 c0 -4 4 -8 9 -8 6 0 12 4 15 8 3 5 -1 9 -9 9 -8 0 -15 -4
-15 -9z"/>
<path d="M3390 840 c-9 -6 -10 -10 -3 -10 6 0 15 5 18 10 8 12 4 12 -15 0z"/>
<path d="M3470 829 c0 -5 5 -7 10 -4 6 3 10 8 10 11 0 2 -4 4 -10 4 -5 0 -10
-5 -10 -11z"/>
<path d="M3290 819 c0 -5 -4 -8 -9 -4 -5 3 -12 1 -15 -4 -4 -5 2 -8 11 -7 15
3 33 26 19 26 -3 0 -6 -5 -6 -11z"/>
<path d="M3199 783 c-13 -16 -12 -17 4 -4 16 13 21 21 13 21 -2 0 -10 -8 -17
-17z"/>
<path d="M3374 792 c4 -3 14 -7 22 -8 9 -1 13 0 10 4 -4 3 -14 7 -22 8 -9 1
-13 0 -10 -4z"/>
<path d="M3010 770 c0 -5 5 -10 10 -10 6 0 10 5 10 10 0 6 -4 10 -10 10 -5 0
-10 -4 -10 -10z"/>
<path d="M3275 770 c-3 -5 -1 -10 4 -10 6 0 11 5 11 10 0 6 -2 10 -4 10 -3 0
-8 -4 -11 -10z"/>
<path d="M2590 755 c7 -9 15 -13 17 -11 7 7 -7 26 -19 26 -6 0 -6 -6 2 -15z"/>
<path d="M2931 753 c3 -20 -2 -27 -11 -13 -6 9 -10 10 -10 3 0 -19 17 -24 29
-9 9 10 9 16 1 21 -6 4 -10 3 -9 -2z"/>
<path d="M3090 749 c0 -5 5 -7 10 -4 6 3 10 8 10 11 0 2 -4 4 -10 4 -5 0 -10
-5 -10 -11z"/>
<path d="M2855 730 c-3 -6 1 -7 9 -4 18 7 21 14 7 14 -6 0 -13 -4 -16 -10z"/>
<path d="M2760 710 c-9 -6 -10 -10 -3 -10 6 0 15 5 18 10 8 12 4 12 -15 0z"/>
<path d="M2876 708 c3 -4 11 -5 19 -1 21 7 19 12 -4 10 -11 0 -18 -5 -15 -9z"/>
<path d="M2370 695 c0 -6 7 -20 15 -31 8 -12 11 -25 7 -30 -4 -5 1 -2 11 5 20
15 22 22 6 19 -6 -2 -14 3 -16 10 -3 7 0 11 5 10 14 -4 16 16 3 20 -6 2 -11
-2 -11 -10 0 -10 -3 -9 -10 2 -5 8 -10 10 -10 5z"/>
<path d="M2630 690 c0 -4 7 -7 15 -6 23 3 26 12 5 13 -11 1 -20 -2 -20 -7z"/>
<path d="M2177 663 c-11 -10 -8 -20 7 -26 8 -3 13 0 12 8 -3 19 -11 27 -19 18z"/>
<path d="M2510 666 c0 -2 8 -10 18 -17 15 -13 16 -12 3 4 -13 16 -21 21 -21
13z"/>
<path d="M2024 608 c10 -6 22 -6 26 -2 5 5 -3 10 -18 11 -22 1 -24 0 -8 -9z"/>
<path d="M1996 588 c3 -5 10 -6 15 -3 13 9 11 12 -6 12 -8 0 -12 -4 -9 -9z"/>
<path d="M1976 577 c3 -10 9 -15 12 -12 3 3 0 11 -7 18 -10 9 -11 8 -5 -6z"/>
</g>
</svg>
