<svg xmlns="http://www.w3.org/2000/svg" width="21.921" height="21.016" viewBox="0 0 21.921 21.016">
  <g id="Icon_feather-shopping-cart" data-name="Icon feather-shopping-cart" transform="translate(-0.5 -0.5)">
    <path id="Path_3" data-name="Path 3" d="M13.811,30.906A.906.906,0,1,1,12.906,30,.906.906,0,0,1,13.811,30.906Z" transform="translate(-4.161 -11.295)" fill="none" stroke="#fff" stroke-linecap="round" stroke-linejoin="round" stroke-width="2"/>
    <path id="Path_4" data-name="Path 4" d="M30.311,30.906A.906.906,0,1,1,29.406,30,.906.906,0,0,1,30.311,30.906Z" transform="translate(-10.701 -11.295)" fill="none" stroke="#fff" stroke-linecap="round" stroke-linejoin="round" stroke-width="2"/>
    <path id="Path_5" data-name="Path 5" d="M1.5,1.5H5.122L7.549,13.625A1.811,1.811,0,0,0,9.36,15.083h8.8a1.811,1.811,0,0,0,1.811-1.458l1.449-7.6H6.028" fill="none" stroke="#fff" stroke-linecap="round" stroke-linejoin="round" stroke-width="2"/>
  </g>
</svg>
