<svg xmlns="http://www.w3.org/2000/svg" width="150.446" height="61.947" viewBox="0 0 150.446 61.947">
  <g id="Group_3318" data-name="Group 3318" transform="translate(-109 -38)">
    <g id="Group_3316" data-name="Group 3316" transform="translate(-165.013 -241.889)">
      <path id="Path_12643" data-name="Path 12643" d="M323.559,321.766a34.957,34.957,0,0,0-2.374-2.76q-4.538-5.206-9.107-10.386-5.056-5.755-10.117-11.506-6.329-7.206-12.648-14.421a1.02,1.02,0,0,0-.852-.383c-3.792.01-7.584.019-11.377-.008-.54,0-.662.145-.661.663.016,5.932,0,11.864.018,17.8,0,.452-.107.629-.575.59a10.689,10.689,0,0,0-1.408,0c-.351.018-.465-.123-.445-.454.019-.312.007-.626.007-.939q0-9.681,0-19.362c0-.691,0-.694.714-.694q11.612,0,23.224-.009a.915.915,0,0,1,.76.345q4.506,5.163,9.014,10.323a1.636,1.636,0,0,0,1.371.64c5.549-.027,11.1-.012,16.648-.032.5,0,.649.127.648.632q-.021,15.969-.013,31.939c0,.339,0,.677,0,1.134-1.047-1.051-1.836-2.174-2.83-3.107Z" fill="#fff"/>
      <path id="Path_12644" data-name="Path 12644" d="M345.391,367.392a21.953,21.953,0,0,0,1.827,2.132c2.4,2.769,4.83,5.518,7.238,8.283a1.333,1.333,0,0,0,1.111.521q5.663-.035,11.326,0c.472,0,.578-.145.577-.59-.013-5.985,0-11.97-.019-17.955,0-.426.117-.552.525-.524a12.83,12.83,0,0,0,1.408.007c.387-.016.5.131.5.517-.017,2.314-.008,4.628-.008,6.942q0,6.733,0,13.466c0,.3.041.556-.433.555q-11.9-.022-23.8-.013c-.07,0-.139-.009-.208-.014a27.366,27.366,0,0,0-1.864-2.164c-2.477-2.842-4.974-5.667-7.442-8.516a1.577,1.577,0,0,0-1.333-.6c-5.566.022-11.132.008-16.7.022-.452,0-.589-.111-.588-.578q.023-15.942.02-31.884a3.6,3.6,0,0,1,.044-1.143,12.389,12.389,0,0,1,1.449,1.564q5.405,6.143,10.794,12.3,7.03,8.013,14.064,16.022C344.369,366.3,344.886,366.843,345.391,367.392Z" transform="translate(-30.231 -38.907)" fill="#fff"/>
    </g>
    <path id="Path_12645" data-name="Path 12645" d="M2.46-24.436V-28a.725.725,0,0,1,.82-.82H6.847q.82,0,.82.779v3.608a.725.725,0,0,1-.82.82H3.28A.725.725,0,0,1,2.46-24.436Zm0,23.575V-20.049q0-.861.82-.861H6.806a.761.761,0,0,1,.861.861V-.861a.946.946,0,0,1-.185.7A.959.959,0,0,1,6.847,0H3.321A.761.761,0,0,1,2.46-.861ZM16.728,0H13.243a.761.761,0,0,1-.861-.861V-20.049a.761.761,0,0,1,.861-.861h3.485a.761.761,0,0,1,.861.861V-18.7h.164q.9-2.214,4.018-2.214h1.312q6.437,0,6.437,6.683V-.861q0,.861-.9.861H25.174a.761.761,0,0,1-.861-.861v-13.12a2.579,2.579,0,0,0-.553-1.866,2.579,2.579,0,0,0-1.865-.553H20.418q-2.829,0-2.829,3.116V-.861A.761.761,0,0,1,16.728,0ZM38.171,0H34.686a.761.761,0,0,1-.861-.861V-20.049a.761.761,0,0,1,.861-.861h3.485a.761.761,0,0,1,.861.861V-18.7H39.2q.9-2.214,4.018-2.214h1.312q6.437,0,6.437,6.683V-.861q0,.861-.9.861H46.617a.761.761,0,0,1-.861-.861v-13.12a2.579,2.579,0,0,0-.554-1.866,2.579,2.579,0,0,0-1.866-.553H41.861q-2.829,0-2.829,3.116V-.861A.761.761,0,0,1,38.171,0ZM54.284-.861V-2.214a3.713,3.713,0,0,1,.779-2.378l8.692-11.685v-.164H55.514q-.861,0-.861-.9v-2.706a.761.761,0,0,1,.861-.861H68.88a.761.761,0,0,1,.861.861v2.46a3.309,3.309,0,0,1-.656,2.132L61.049-4.633v.164h8.282q.861,0,.861.9V-.861A.761.761,0,0,1,69.331,0H55.145A.761.761,0,0,1,54.284-.861ZM83.681,0H80.032a6.861,6.861,0,0,1-5-1.722,6.623,6.623,0,0,1-1.763-4.961v-7.544a6.623,6.623,0,0,1,1.763-4.961,6.861,6.861,0,0,1,5-1.722h3.649a6.827,6.827,0,0,1,4.981,1.743,6.593,6.593,0,0,1,1.784,4.941v7.544a6.593,6.593,0,0,1-1.784,4.941A6.827,6.827,0,0,1,83.681,0Zm-2.87-4.469H82.9A2.646,2.646,0,0,0,84.768-5a2.5,2.5,0,0,0,.553-1.845v-7.216a2.5,2.5,0,0,0-.553-1.845,2.646,2.646,0,0,0-1.866-.533H80.811a2.566,2.566,0,0,0-1.845.533,2.566,2.566,0,0,0-.533,1.845v7.216A2.566,2.566,0,0,0,78.966-5,2.566,2.566,0,0,0,80.811-4.469Z" transform="translate(169 76)" fill="#fff"/>
  </g>
</svg>
