<svg xmlns="http://www.w3.org/2000/svg" width="23.102" height="23.102" viewBox="0 0 23.102 23.102">
  <path id="Icon_awesome-user-alt" data-name="Icon awesome-user-alt" d="M10.851,12.207a6.1,6.1,0,1,0-6.1-6.1A6.105,6.105,0,0,0,10.851,12.207Zm5.425,1.356H13.941a7.378,7.378,0,0,1-6.18,0H5.425A5.425,5.425,0,0,0,0,18.989v.678A2.035,2.035,0,0,0,2.035,21.7H19.667A2.035,2.035,0,0,0,21.7,19.667v-.678A5.425,5.425,0,0,0,16.276,13.564Z" transform="translate(0.7 0.7)" fill="none" stroke="#fff" stroke-width="1.4"/>
</svg>
